<svg version="1.1" id="Layer_1" xmlns="http://www.w3.org/2000/svg" xmlns:xlink="http://www.w3.org/1999/xlink" x="0px" y="0px"
	 width="100%" viewBox="0 0 368 368" enable-background="new 0 0 368 368" xml:space="preserve" class="svg-logo">
<path fill="#ffffff" opacity="1.000000" stroke="none" class="svg-logo"
	d="
M74.997833,327.507080 
	C64.056541,327.670563 53.499855,327.670563 43.225636,327.670563 
	C42.349430,325.234406 43.466785,324.008575 44.068333,322.705231 
	C80.982826,242.723282 117.927170,162.755096 154.845078,82.774719 
	C159.101547,73.553329 163.585876,64.410767 167.263443,54.958862 
	C169.309174,49.701004 172.230286,47.951065 177.654861,48.368179 
	C183.785324,48.839573 189.988754,48.766247 196.136200,48.453278 
	C199.554825,48.279224 201.180862,49.495972 202.548080,52.502514 
	C211.164017,71.449265 219.951187,90.318192 228.690933,109.208595 
	C252.880432,161.492615 277.065247,213.778839 301.271545,266.055084 
	C310.016907,284.941711 318.821838,303.800781 327.585846,322.678802 
	C328.201447,324.004852 329.120697,325.270081 328.686554,327.279266 
	C318.167999,328.366730 307.539795,327.110687 296.946564,327.541840 
	C294.508789,327.641052 294.156555,325.541046 293.403015,323.935760 
	C286.964935,310.221008 280.456787,296.537964 274.170715,282.753754 
	C272.558685,279.218903 270.746185,277.437256 266.422913,277.474518 
	C242.931610,277.677124 219.436890,277.527710 195.943710,277.417419 
	C192.584930,277.401672 190.655106,278.444702 189.158188,281.796356 
	C182.912842,295.779907 176.171738,309.541260 169.831116,323.483551 
	C168.381378,326.671356 166.538940,328.030304 163.022720,327.946808 
	C155.195694,327.761017 147.360748,327.932495 139.529495,327.883698 
	C137.752182,327.872620 135.851883,328.193726 134.250671,326.911835 
	C133.617447,325.095551 134.676895,323.680695 135.358322,322.224854 
	C145.806244,299.903290 156.364151,277.632507 166.666809,255.244247 
	C168.601990,251.039032 171.036148,249.485016 175.763306,249.530716 
	C201.088806,249.775604 226.417984,249.640640 251.745880,249.636963 
	C253.383759,249.636734 255.021622,249.636932 256.501221,249.636932 
	C257.821381,247.269699 256.476410,245.711456 255.779221,244.149597 
	C252.792999,237.459946 249.572891,230.872299 246.697601,224.136673 
	C245.468719,221.257858 243.739685,220.188080 240.628235,220.195023 
	C203.636322,220.277466 166.644089,220.292068 129.652313,220.186172 
	C126.366287,220.176773 125.039108,221.647675 123.788216,224.350449 
	C108.473831,257.440033 93.060356,290.483765 77.646408,323.527191 
	C77.024193,324.861115 76.142967,326.074188 74.997833,327.507080 
M208.673798,139.702988 
	C201.268234,123.454140 193.862686,107.205292 186.025375,90.009117 
	C170.615005,124.343002 154.486450,156.961624 140.404312,190.294601 
	C141.588791,191.629547 142.603317,191.606354 143.588333,191.606705 
	C171.408813,191.616516 199.229355,191.595703 227.049744,191.650391 
	C231.101334,191.658356 230.973862,189.826324 229.672379,186.918777 
	C222.737534,171.425903 215.867706,155.903946 208.673798,139.702988 
z"/>
</svg>